<svg xmlns="http://www.w3.org/2000/svg" xmlns:xlink="http://www.w3.org/1999/xlink" x="0px" y="0px" viewBox="0 0 24 24" xml:space="preserve">
<path style="fill:#000000;" d="M5.756013,0.556641L3.137576-3.603321C2.701911-4.330664,1.948591-4.75,1.124763-4.75h-2.248828
	c-0.82457,0-1.578262,0.41748-2.014297,1.116621l-2.617955,4.19002c-0.3479,0.555899-0.17857,1.288438,0.377031,1.636152
	c0.556641,0.3479,1.289551,0.178571,1.636152-0.378145l1.071719-1.713711L-2.704925,8.3125
	c0,0.655724,0.531777,1.1875,1.1875,1.1875s1.154101-0.531776,1.154101-1.1875V2.96875h0.59375V8.3125
	c0,0.655724,0.531777,1.1875,1.1875,1.1875s1.1875-0.531776,1.1875-1.1875V0.103906l1.071718,1.714454
	C3.967341,2.178321,4.356989,2.375,4.750349,2.375c0.21453,0,0.432695-0.057965,0.628633-0.180315
	C5.934138,1.848046,6.104841,1.113281,5.756013,0.556641z M0.000349-5.9375c0.983398,0,1.78125-0.797852,1.78125-1.78125
	S0.983747-9.5,0.000349-9.5s-1.78125,0.797852-1.78125,1.78125S-0.98305-5.9375,0.000349-5.9375z"/>
</svg>
