<svg xmlns="http://www.w3.org/2000/svg" xmlns:xlink="http://www.w3.org/1999/xlink" x="0px" y="0px" viewBox="0 0 24 24" xml:space="preserve">
	<path style="fill:#FFFFFF;" d="M6-0.000031c0,0.51001-0.410034,0.920044-0.920044,0.920044H-5.070007
		C-5.580017,0.920013-6,0.509979-6-0.000031s0.419983-0.919983,0.929993-0.919983H5.079956C5.589966-0.920013,6-0.51004,6-0.000031z"/>
	<path style="fill:#FF0000;" d="M5.079956-1.920013H-5.070007C-6.130005-1.920013-7-1.060028-7-0.000031
		s0.869995,1.920044,1.929993,1.920044H5.079956C6.140015,1.920013,7,1.059967,7-0.000031S6.140015-1.920013,5.079956-1.920013z
		M5.079956,0.920013H-5.070007C-5.580017,0.920013-6,0.509979-6-0.000031s0.419983-0.919983,0.929993-0.919983H5.079956
		C5.589966-0.920013,6-0.51004,6-0.000031S5.589966,0.920013,5.079956,0.920013z"/>
</svg>
