<svg xmlns="http://www.w3.org/2000/svg" x="0px" y="0px" viewBox="0 0 24 24" xml:space="preserve">
<path style="fill:#000000;" d="M0-1.5c-0.83,0-1.5,0.67-1.5,1.5c0,0.83,0.67,1.5,1.5,1.5c0.83,0,1.5-0.67,1.5-1.5C1.5-0.83,0.83-1.5,0-1.5z M0-1.5
	c-0.83,0-1.5,0.67-1.5,1.5c0,0.83,0.67,1.5,1.5,1.5c0.83,0,1.5-0.67,1.5-1.5C1.5-0.83,0.83-1.5,0-1.5z M10.88-1.12h-0.82
	c-0.52-4.7-4.24-8.42-8.94-8.94v-0.86C1.12-11.5,0.62-12,0-12s-1.12,0.5-1.12,1.08v0.86c-4.7,0.52-8.42,4.24-8.94,8.94h-0.86
	C-11.5-1.12-12-0.62-12,0s0.5,1.12,1.08,1.12h0.86c0.52,4.7,4.24,8.42,8.94,8.94v0.81c0,0.63,0.5,1.13,1.08,1.13
	c0.58,0,1.16-0.5,1.16-1.12v-0.82c4.7-0.52,8.42-4.24,8.94-8.93h0.82C11.5,1.12,12,0.62,12,0S11.5-1.12,10.88-1.12z M6.33,1.12h1.42
	C7.31,4.58,4.57,7.31,1.12,7.79V6.33c0-0.58-0.5-1.08-1.12-1.08s-1.12,0.5-1.12,1.08v1.42c-3.46-0.44-6.19-3.18-6.67-6.63h1.41
	c0.63,0,1.13-0.5,1.13-1.12s-0.5-1.12-1.13-1.12h-1.41c0.48-3.46,3.22-6.19,6.67-6.67v1.41c0,0.63,0.5,1.13,1.08,1.13
	c0.58,0,1.16-0.5,1.16-1.13v-1.41c3.46,0.48,6.19,3.22,6.67,6.67H6.33c-0.58,0-1.08,0.5-1.08,1.08C5.25,0.54,5.75,1.12,6.33,1.12z
	 M0-1.5c-0.83,0-1.5,0.67-1.5,1.5c0,0.83,0.67,1.5,1.5,1.5c0.83,0,1.5-0.67,1.5-1.5C1.5-0.83,0.83-1.5,0-1.5z"/>
<path style="fill:#FFFFFF;" d="M5.25-0.04c0-0.58,0.5-1.08,1.08-1.08h1.46C7.31-4.57,4.58-7.31,1.12-7.79v1.41
	c0,0.63-0.58,1.13-1.16,1.13c-0.58,0-1.08-0.5-1.08-1.13v-1.41c-3.45,0.48-6.19,3.21-6.67,6.67h1.41c0.63,0,1.13,0.5,1.13,1.12
	s-0.5,1.12-1.13,1.12h-1.41c0.48,3.45,3.21,6.19,6.67,6.63V6.33c0-0.58,0.5-1.08,1.12-1.08s1.12,0.5,1.12,1.08v1.46
	c3.45-0.48,6.19-3.21,6.63-6.67H6.33C5.75,1.12,5.25,0.54,5.25-0.04z M0,1.5c-0.83,0-1.5-0.67-1.5-1.5c0-0.83,0.67-1.5,1.5-1.5
	c0.83,0,1.5,0.67,1.5,1.5C1.5,0.83,0.83,1.5,0,1.5z"/>
</svg>
