<svg xmlns="http://www.w3.org/2000/svg" xmlns:xlink="http://www.w3.org/1999/xlink" x="0px" y="0px" viewBox="0 0 24 24" xml:space="preserve">
	<path style="fill:#FFFFFF;" d="M6,0c0,0.51001-0.410034,0.920044-0.920044,0.920044H0.929993v4.159973
		C0.929993,5.590027,0.51001,6,0,6s-0.920044-0.409973-0.920044-0.919983V0.920044h-4.149963C-5.580017,0.920044-6,0.51001-6,0
		s0.419983-0.919983,0.929993-0.919983h4.149963v-4.159973C-0.920044-5.589966-0.51001-6,0-6s0.929993,0.410034,0.929993,0.920044
		v4.159973h4.149963C5.589966-0.919983,6-0.51001,6,0z"/>
	<path style="fill:#FF0000;" d="M5.079956-1.919983H1.929993v-3.159973C1.929993-6.139954,1.059998-7,0-7
		s-1.920044,0.860046-1.920044,1.920044v3.159973h-3.149963C-6.130005-1.919983-7-1.059998-7,0s0.869995,1.920044,1.929993,1.920044
		h3.149963v3.159973C-1.920044,6.140015-1.059998,7,0,7s1.929993-0.859985,1.929993-1.919983V1.920044h3.149963
		C6.140015,1.920044,7,1.059998,7,0S6.140015-1.919983,5.079956-1.919983z M5.079956,0.920044H0.929993v4.159973
		C0.929993,5.590027,0.51001,6,0,6s-0.920044-0.409973-0.920044-0.919983V0.920044h-4.149963C-5.580017,0.920044-6,0.51001-6,0
		s0.419983-0.919983,0.929993-0.919983h4.149963v-4.159973C-0.920044-5.589966-0.51001-6,0-6s0.929993,0.410034,0.929993,0.920044
		v4.159973h4.149963C5.589966-0.919983,6-0.51001,6,0S5.589966,0.920044,5.079956,0.920044z"/>
</svg>
