<?xml version="1.0" encoding="utf-8"?>
<!-- Generator: Adobe Illustrator 25.3.1, SVG Export Plug-In . SVG Version: 6.00 Build 0)  -->
<svg version="1.1" id="Layer_1" xmlns:serif="http://www.serif.com"
	 xmlns="http://www.w3.org/2000/svg" xmlns:xlink="http://www.w3.org/1999/xlink" x="0px" y="0px" viewBox="0 0 24 24"
	 style="enable-background:new 0 0 24 24;" xml:space="preserve">
<g>
	<path d="M-0.000817-4.566073c-2.486111,0-4.5,2.017361-4.5,4.5s2.017361,4.5,4.5,4.5s4.5-2.013889,4.5-4.5
		S2.485294-4.566073-0.000817-4.566073z M-0.000817,2.975593c-1.652778,0-3-1.347222-3-3s1.347222-3,3-3s3,1.347222,3,3
		S1.655433,2.975593-0.000817,2.975593z"/>
	<path id="sensorColor" style="fill:#FF0000;" d="M-0.000817,2.975593c-1.652778,0-3-1.347222-3-3s1.347222-3,3-3s3,1.347222,3,3
		S1.655433,2.975593-0.000817,2.975593z"/>
	<path d="M11.249183-0.788296H8.964461C8.645017-4.618157,5.933211-7.767462,2.318628-8.73274l-1.76389-4.1875
		c-0.09375-0.222221-0.309028-0.368055-0.552083-0.371528h-0.003472c-0.243056,0-0.465278,0.145834-0.555556,0.371528
		l-1.763889,4.1875C-5.931372-7.770935-8.64665-4.621629-8.966095-0.788296h-2.284721c-0.413195,0-0.75,0.336806-0.75,0.708333
		c0,0.454861,0.336805,0.791667,0.75,0.791667h2.284721c0.364583,4.375,3.847222,7.850695,8.215278,8.215278v2.284723
		c0,0.413194,0.336806,0.708333,0.708333,0.708333c0.454861,0,0.791667-0.295139,0.791667-0.708333V8.926983
		c4.371528-0.364583,7.850695-3.84375,8.21875-8.218749h2.28125c0.413195,0,0.750001-0.336806,0.750001-0.708333
		C11.999184-0.45149,11.662377-0.788296,11.249183-0.788296z M0.023489,7.461704h-0.024306c-4.135417,0-7.5-3.364583-7.5-7.5
		s3.364583-7.5,7.5-7.5h0.024306c4.125,0.013889,7.475695,3.371528,7.475695,7.5S4.151961,7.447815,0.023489,7.461704z"/>
	<path style="fill:#FFFFFF;" d="M0.023489-7.538296h-0.024306c-4.135417,0-7.5,3.364583-7.5,7.5s3.364583,7.5,7.5,7.5h0.024306
		c4.128472-0.013888,7.475695-3.371527,7.475695-7.5S4.148489-7.524406,0.023489-7.538296z M-0.000817,4.433927
		c-2.486111,0-4.5-2.013889-4.5-4.5s2.013889-4.5,4.5-4.5s4.5,2.013889,4.5,4.5S2.481822,4.433927-0.000817,4.433927z"/>
</g>
</svg>
