<svg xmlns="http://www.w3.org/2000/svg" xmlns:xlink="http://www.w3.org/1999/xlink" x="0px" y="0px" viewBox="0 0 24 24" xml:space="preserve">
	<path style="fill:#FF0000;" d="M4.5,0.005947c0,2.48999-2.02002,4.5-4.5,4.5s-4.5-2.01001-4.5-4.5c0-2.480042,2.01001-4.5,4.5-4.5
		c1.695189,0,3.167911,0.936232,3.935374,2.316484C4.295205-1.530428,4.5-0.785679,4.5,0.005947z"/>
	<path d="M11.25-0.712396H8.965278C8.645834-4.542257,5.934028-7.691563,2.319445-8.65684l-1.76389-4.187501
		c-0.09375-0.222221-0.309028-0.368055-0.552083-0.371528H0c-0.243056,0-0.465278,0.145834-0.555556,0.371528L-2.319444-8.65684
		C-5.930555-7.695035-8.645833-4.54573-8.965278-0.712396H-11.25c-0.413194,0-0.75,0.336806-0.75,0.708333
		c0,0.454861,0.336806,0.791667,0.75,0.791667h2.284722c0.364583,4.375,3.847222,7.850694,8.215278,8.215278v2.284723
		c0,0.413194,0.336806,0.708333,0.708333,0.708333c0.454861,0,0.791667-0.295139,0.791667-0.708333V9.002883
		c4.371528-0.364584,7.850695-3.84375,8.218749-8.21875H11.25c0.413194,0,0.75-0.336806,0.75-0.708333
		C12-0.375591,11.663194-0.712396,11.25-0.712396z M0.024306,7.537603H0c-4.135417,0-7.5-3.364583-7.5-7.5s3.364583-7.5,7.5-7.5
		h0.024306C4.149305-7.448507,7.5-4.090868,7.5,0.037604S4.152778,7.523715,0.024306,7.537603z"/>
	<path style="fill:#FFFFFF;" d="M0.024306-7.462397H0c-4.135417,0-7.5,3.364583-7.5,7.5s3.364583,7.5,7.5,7.5h0.024306
		C4.152778,7.523715,7.5,4.166076,7.5,0.037604S4.149305-7.448507,0.024306-7.462397z M0,4.509826c-2.486111,0-4.5-2.013889-4.5-4.5
		s2.013889-4.5,4.5-4.5s4.5,2.013889,4.5,4.5S2.482639,4.509826,0,4.509826z"/>
</svg>
