<svg id="Layer_1" data-name="Layer 1" xmlns="http://www.w3.org/2000/svg" width="80.14" height="78.92" viewBox="0 0 80.14 78.92"><circle cx="41.28" cy="40.07" r="31.57" style="fill:#f4f5f7"/><rect x="33.55" width="14.57" height="18.21" rx="6" style="fill:#fff"/><rect x="34" y="61.93" width="14.57" height="17" rx="6" style="fill:#fff"/><rect x="65.57" y="30.36" width="14.57" height="17" rx="6" style="fill:#fff"/><rect y="30.36" width="19.43" height="17" rx="6" style="fill:#fff"/><path d="M43.2,29.84l6.89,16.37a2.34,2.34,0,0,1-.5,2.49,2.25,2.25,0,0,1-3.18.06l-5.27-5.27-5.27,5.27a2.24,2.24,0,0,1-3.68-2.42L39.09,30a2.32,2.32,0,0,1,2.08-1.43A2.07,2.07,0,0,1,43.2,29.84Z" style="fill:#0f1418"/><path d="M43.71,14.08h1.55V2.92H44v9.29H43.9L42.55,9.73,38.47,2.92H36.92V14.08h1.31V4.79h.05l1.35,2.48Z" style="fill:#0f1418"/><path d="M41.15,76.84c2.4,0,3.84-1.31,3.84-3.36,0-1.66-1-2.62-3.12-3.12L41,70.15c-1.4-.32-2.09-.8-2.09-1.85,0-1.2.88-1.83,2.3-1.83a3.13,3.13,0,0,1,2.75,1.38l1-.74a4.2,4.2,0,0,0-3.69-1.82c-2.2,0-3.7,1.07-3.7,3,0,1.72,1.12,2.61,3.15,3.08l.91.2c1.48.34,2.07.87,2.07,1.92,0,1.28-.87,2.12-2.47,2.12a3.55,3.55,0,0,1-3-1.6l-1,.83A4.65,4.65,0,0,0,41.15,76.84Z" style="fill:#0f1418"/><path d="M76.26,44.57V43.39H70.79V39.51h5.15V38.33H70.79V34.59h5.47V33.4H69.45V44.57Z" style="fill:#0f1418"/><path d="M7.11,44.57,8.6,39l1.06-4.09h0l1,4.09,1.46,5.57h1.49L16.52,33.4H15.15l-1.27,5.38-1,4.16h-.05l-1-4.16L10.47,33.4H8.94L7.53,38.78,6.49,43h0l-.93-4.17L4.33,33.4H2.91L5.63,44.57Z" style="fill:#0f1418"/></svg>