<?xml version="1.0" encoding="utf-8"?>
<!-- Generator: Adobe Illustrator 25.3.1, SVG Export Plug-In . SVG Version: 6.00 Build 0)  -->
<svg version="1.1" id="Layer_1" xmlns:serif="http://www.serif.com"
	 xmlns="http://www.w3.org/2000/svg" xmlns:xlink="http://www.w3.org/1999/xlink" x="0px" y="0px" viewBox="0 0 691.2 726"
	 style="enable-background:new 0 0 691.2 726;" xml:space="preserve">
<path d="M0-131.5c-71.6,0-129.6,58.1-129.6,129.6S-71.5,127.7,0,127.7S129.6,69.7,129.6-1.9S71.6-131.5,0-131.5z M0,85.7
	c-47.6,0-86.4-38.8-86.4-86.4S-47.6-87.1,0-87.1S86.4-48.3,86.4-0.7S47.7,85.7,0,85.7z"/>
<path id="sensorColor" style="fill:#FF0000;" d="M0,85.7c-47.6,0-86.4-38.8-86.4-86.4S-47.6-87.1,0-87.1S86.4-48.3,86.4-0.7
	S47.7,85.7,0,85.7z"/>
<path d="M324-22.7h-65.8c-9.2-110.3-87.3-201-191.4-228.8L16-372.1c-2.7-6.4-8.9-10.6-15.9-10.7H0c-7,0-13.4,4.2-16,10.7
	l-50.8,120.6c-104,27.7-182.2,118.4-191.4,228.8H-324c-11.9,0-21.6,9.7-21.6,20.4c0,13.1,9.7,22.8,21.6,22.8h65.8
	c10.5,126,110.8,226.1,236.6,236.6v65.8c0,11.9,9.7,20.4,20.4,20.4c13.1,0,22.8-8.5,22.8-20.4v-65.8
	c125.9-10.5,226.1-110.7,236.7-236.7H324c11.9,0,21.6-9.7,21.6-20.4C345.6-13,335.9-22.7,324-22.7z M0.7,214.9H0
	c-119.1,0-216-96.9-216-216s96.9-216,216-216h0.7C119.5-216.7,216-120,216-1.1S119.6,214.5,0.7,214.9z"/>
<path style="fill:#FFFFFF;" d="M0.7-217.1H0c-119.1,0-216,96.9-216,216s96.9,216,216,216h0.7C119.6,214.5,216,117.8,216-1.1
	S119.5-216.7,0.7-217.1z M0,127.7c-71.6,0-129.6-58-129.6-129.6S-71.6-131.5,0-131.5s129.6,58,129.6,129.6S71.5,127.7,0,127.7z"/>
</svg>
