<?xml version="1.0" encoding="utf-8"?>
<!-- Generator: Adobe Illustrator 25.0.1, SVG Export Plug-In . SVG Version: 6.00 Build 0)  -->
<svg version="1.1" id="Layer_1" xmlns="http://www.w3.org/2000/svg" xmlns:xlink="http://www.w3.org/1999/xlink" x="0px" y="0px"
	 viewBox="0 0 65 65" style="enable-background:new 0 0 65 65;" xml:space="preserve">
<g>
	<circle cx="32.5" cy="18.4" r="6.6"/>
</g>
<path d="M37.7,35.1c7.7-1.6,15.4-6.1,15.8-6.3L50,22.7c-2.9,1.7-11.6,6-17.5,6c-5.8,0-14.6-4.3-17.5-6l-3.5,6.1
	c0.4,0.2,8.1,4.7,15.8,6.3c-6,3.5-9.8,12-10.3,13.2l6.4,2.7c1.8-4.2,5.9-10.4,9-10.4s7.2,6.2,9,10.4l3.2-1.4l3.2-1.4
	C47.5,47.1,43.7,38.6,37.7,35.1z"/>
</svg>
