<?xml version="1.0" encoding="utf-8"?>
<svg version="1.1" id="Layer_1" xmlns="http://www.w3.org/2000/svg" xmlns:xlink="http://www.w3.org/1999/xlink" x="0px" y="0px"
	 viewBox="0 0 339 54.6" style="enable-background:new 0 0 339 54.6;" xml:space="preserve">
<g>
	<path d="M75.9,27.3c0-15,11.9-27.3,26.6-27.3C117.1,0,129,12.2,129,27.3c0,15-11.9,27.3-26.5,27.3C87.8,54.6,75.9,42.3,75.9,27.3z
		 M119.2,27.4c0-9.4-7.3-17.3-16.4-17.3S86.4,18,86.4,27.4c0,9.3,7.3,17.2,16.4,17.2C111.8,44.6,119.2,36.7,119.2,27.4z"/>
	<path d="M156.2,16.4c6.7,0.4,14,5.5,15.2,15.8c1.8,16.2-9.8,22.1-16.6,21.7c-4.8-0.2-8.6-2.4-10.7-5.2l-0.4,4.2l-9,0.1l0.1-52.6
		l9.4,0.1V21C147.2,17.2,151.6,16.1,156.2,16.4z M152.6,45.4c6.3,0.2,9.5-5.2,9.5-10c0-5.5-3.5-10.6-9.2-10.3
		c-5.4,0.3-8.7,4.5-8.7,10.2C144.2,38.6,146.2,45.1,152.6,45.4z"/>
	<path d="M177.5,44.6c-0.8-7.8,4.7-11.4,12.5-12.4c3.5-0.5,7.7-0.9,8.7-1.7s1.8-4.9-3.2-6.2c-4.5-1.2-8.1,0.8-9,5.4l-8.4-1.8
		c0.5-3,2.4-6.8,7.6-9.7c3.7-2.1,9.7-2.8,14.7-0.9c6.6,2.4,9.4,7.1,9.4,12.1L210,53h-9.4l-0.3-4.1c-1.6,2.2-4.8,5.2-10,5.2
		C182.5,54.1,178.3,50.5,177.5,44.6z M200.3,38.4c-7.7,1.2-13.4-0.5-13.4,4.3c0,3.5,3.1,4.8,7.3,3.9C198.9,45.7,200.8,42,200.3,38.4
		z"/>
	<path d="M233.1,25.4c-5.5,0.6-8.6,5.4-8.5,9.5c0.1,5.3,3.2,9.8,8.7,10.2c3.9,0.3,7.6-2.2,8.8-5.6l9.4,2.7
		c-2.7,7.8-9.9,12.6-18.6,12.2C223.3,54,215,46.8,215,34.7c0-10.6,9.2-18.9,18.4-18.9c10.5-0.1,15.8,6.4,17.8,12.5l-9.1,2.4
		C239.3,25.9,235.6,25.1,233.1,25.4z"/>
	<path d="M256.5,0.5L267,0.6V21c0.6-1.4,4.8-4.4,9.9-4.4c11.7,0,13.6,9.2,13.6,15v21.5h-10.4V32.9c0-6.6-3.9-7.8-6.5-7.8
		s-6.8,1.7-6.8,7.8v20.2h-10.2L256.5,0.5z"/>
	<path d="M309.8,53.4c-6.5-1.3-8.9-7-8.9-11.1V25.8h-6.2v-8.3h3.9c2.2,0,2.7-0.8,2.7-2.4V6.8h9.1v10.7h8.4v8.3h-8.5v10.5
		c0,5,0.1,6,1.2,7.1c1.7,1.9,4.8,1.3,6.3,0.4l2.7,8.2C317.7,53.1,315.1,54.4,309.8,53.4z"/>
	<path d="M326.3,47c0-3.5,2.9-6.3,6.4-6.3s6.3,2.9,6.3,6.3c0,3.5-2.9,6.4-6.3,6.4C329.2,53.4,326.3,50.5,326.3,47z M328,1.7h9.6
		l-0.9,33.8H329L328,1.7z"/>
</g>
<g>
	<g>
		<circle cx="23.2" cy="13" r="7.3"/>
	</g>
	<path d="M28.9,31.4c8.5-1.8,17-6.7,17.4-6.9l-3.9-6.7c-3.2,1.9-12.8,6.6-19.3,6.6c-6.4,0-16.1-4.7-19.3-6.6L0,24.4
		c0.4,0.2,8.9,5.2,17.4,6.9C10.8,35.2,6.7,44.6,6.1,45.9l7.1,3c2-4.6,6.5-11.5,9.9-11.5S31,44.3,33,48.9l3.5-1.5l3.5-1.5
		C39.7,44.6,35.5,35.2,28.9,31.4z"/>
</g>
</svg>
